<mxfile host="app.diagrams.net" modified="2023-10-15T06:40:09.076Z" agent="Mozilla/5.0 (X11; Linux x86_64) AppleWebKit/537.36 (KHTML, like Gecko) Chrome/117.0.0.0 Safari/537.36" etag="FENYWt8izf0M5Fa73M_z" version="21.7.4" type="device">
  <diagram name="Page-1" id="q_MynqgvBXBLcfy8kB79">
    <mxGraphModel dx="989" dy="498" grid="1" gridSize="10" guides="1" tooltips="1" connect="1" arrows="1" fold="1" page="1" pageScale="1" pageWidth="850" pageHeight="1100" math="0" shadow="0">
      <root>
        <mxCell id="0" />
        <mxCell id="1" parent="0" />
        <mxCell id="6yzn0O8OQgqGRN4hSSv7-11" value="" style="shape=hexagon;perimeter=hexagonPerimeter2;whiteSpace=wrap;html=1;fixedSize=1;strokeWidth=2;fontFamily=Helvetica;" vertex="1" parent="1">
          <mxGeometry x="360" y="221" width="100" height="58" as="geometry" />
        </mxCell>
        <mxCell id="bC8LytwzRF4bNWjZ34YL-15" value="" style="group;labelBackgroundColor=none;fontFamily=Helvetica;fontSize=20;" parent="1" vertex="1" connectable="0">
          <mxGeometry x="526" y="160" width="240" height="126" as="geometry" />
        </mxCell>
        <mxCell id="6yzn0O8OQgqGRN4hSSv7-3" value="" style="rounded=1;whiteSpace=wrap;html=1;strokeWidth=2;fontFamily=Helvetica;" vertex="1" parent="bC8LytwzRF4bNWjZ34YL-15">
          <mxGeometry x="20" y="-4" width="200" height="120" as="geometry" />
        </mxCell>
        <mxCell id="bC8LytwzRF4bNWjZ34YL-17" value="" style="rounded=0;whiteSpace=wrap;html=1;labelBackgroundColor=none;fontFamily=Helvetica;fontSize=18;strokeWidth=2;fillColor=#76608a;fontColor=#ffffff;strokeColor=#432D57;" parent="bC8LytwzRF4bNWjZ34YL-15" vertex="1">
          <mxGeometry x="-1" y="17" width="20" height="20" as="geometry" />
        </mxCell>
        <mxCell id="bC8LytwzRF4bNWjZ34YL-18" value="" style="rounded=0;whiteSpace=wrap;html=1;labelBackgroundColor=none;fontFamily=Helvetica;fontSize=18;strokeWidth=2;fillColor=#76608a;fontColor=#ffffff;strokeColor=#432D57;" parent="bC8LytwzRF4bNWjZ34YL-15" vertex="1">
          <mxGeometry x="-1" y="78" width="20" height="20" as="geometry" />
        </mxCell>
        <mxCell id="bC8LytwzRF4bNWjZ34YL-19" value="" style="rounded=0;whiteSpace=wrap;html=1;labelBackgroundColor=none;fontFamily=Helvetica;fontSize=18;strokeWidth=2;fillColor=#76608a;fontColor=#ffffff;strokeColor=#432D57;" parent="bC8LytwzRF4bNWjZ34YL-15" vertex="1">
          <mxGeometry x="220" y="10" width="20" height="20" as="geometry" />
        </mxCell>
        <mxCell id="bC8LytwzRF4bNWjZ34YL-20" value="" style="rounded=0;whiteSpace=wrap;html=1;labelBackgroundColor=none;fontFamily=Helvetica;fontSize=18;strokeWidth=2;fillColor=#76608a;fontColor=#ffffff;strokeColor=#432D57;" parent="bC8LytwzRF4bNWjZ34YL-15" vertex="1">
          <mxGeometry x="220" y="76" width="20" height="20" as="geometry" />
        </mxCell>
        <mxCell id="bC8LytwzRF4bNWjZ34YL-21" value="Process_2" style="swimlane;fontStyle=1;childLayout=stackLayout;horizontal=1;startSize=30;horizontalStack=0;resizeParent=1;resizeParentMax=0;resizeLast=0;collapsible=1;marginBottom=0;whiteSpace=wrap;html=1;strokeWidth=2;fontFamily=Helvetica;fontSize=18;labelBackgroundColor=none;" parent="bC8LytwzRF4bNWjZ34YL-15" vertex="1">
          <mxGeometry x="40" y="20" width="120" height="70" as="geometry" />
        </mxCell>
        <mxCell id="bC8LytwzRF4bNWjZ34YL-22" value="&lt;font style=&quot;font-size: 20px;&quot;&gt;Module 2&lt;/font&gt;" style="text;html=1;strokeColor=none;fillColor=none;align=center;verticalAlign=middle;whiteSpace=wrap;rounded=0;fontStyle=1;fontFamily=Helvetica;fontSize=18;labelBackgroundColor=none;" parent="bC8LytwzRF4bNWjZ34YL-15" vertex="1">
          <mxGeometry x="60" y="88" width="130" height="30" as="geometry" />
        </mxCell>
        <mxCell id="6yzn0O8OQgqGRN4hSSv7-2" value="" style="rounded=1;whiteSpace=wrap;html=1;strokeWidth=2;fontFamily=Helvetica;" vertex="1" parent="1">
          <mxGeometry x="70" y="158" width="200" height="120" as="geometry" />
        </mxCell>
        <mxCell id="bC8LytwzRF4bNWjZ34YL-14" value="" style="group;labelBackgroundColor=none;fontFamily=Helvetica;fontSize=18;" parent="1" vertex="1" connectable="0">
          <mxGeometry x="50" y="160" width="270" height="140" as="geometry" />
        </mxCell>
        <mxCell id="bC8LytwzRF4bNWjZ34YL-3" value="" style="rounded=0;whiteSpace=wrap;html=1;labelBackgroundColor=none;fontFamily=Helvetica;fontSize=18;strokeWidth=2;fillColor=#76608a;fontColor=#ffffff;strokeColor=#432D57;" parent="bC8LytwzRF4bNWjZ34YL-14" vertex="1">
          <mxGeometry x="-1" y="20" width="20" height="20" as="geometry" />
        </mxCell>
        <mxCell id="bC8LytwzRF4bNWjZ34YL-5" value="" style="rounded=0;whiteSpace=wrap;html=1;labelBackgroundColor=none;fontFamily=Helvetica;fontSize=18;strokeWidth=2;fillColor=#76608a;strokeColor=#432D57;fontColor=#ffffff;" parent="bC8LytwzRF4bNWjZ34YL-14" vertex="1">
          <mxGeometry x="220" y="17" width="20" height="20" as="geometry" />
        </mxCell>
        <mxCell id="bC8LytwzRF4bNWjZ34YL-6" value="" style="rounded=0;whiteSpace=wrap;html=1;labelBackgroundColor=none;fontFamily=Helvetica;fontSize=18;strokeWidth=2;fillColor=#76608a;fontColor=#ffffff;strokeColor=#432D57;" parent="bC8LytwzRF4bNWjZ34YL-14" vertex="1">
          <mxGeometry x="220" y="77" width="20" height="20" as="geometry" />
        </mxCell>
        <mxCell id="bC8LytwzRF4bNWjZ34YL-7" value="Process_1" style="swimlane;fontStyle=1;childLayout=stackLayout;horizontal=1;startSize=30;horizontalStack=0;resizeParent=1;resizeParentMax=0;resizeLast=0;collapsible=1;marginBottom=0;whiteSpace=wrap;html=1;strokeWidth=2;fontFamily=Helvetica;fontSize=18;labelBackgroundColor=none;" parent="bC8LytwzRF4bNWjZ34YL-14" vertex="1">
          <mxGeometry x="40" y="20" width="120" height="70" as="geometry" />
        </mxCell>
        <mxCell id="bC8LytwzRF4bNWjZ34YL-11" value="&lt;font style=&quot;font-size: 20px;&quot;&gt;Module 1&lt;/font&gt;" style="text;html=1;strokeColor=none;fillColor=none;align=center;verticalAlign=middle;whiteSpace=wrap;rounded=0;fontStyle=1;fontFamily=Helvetica;fontSize=18;labelBackgroundColor=none;" parent="bC8LytwzRF4bNWjZ34YL-14" vertex="1">
          <mxGeometry x="60" y="93" width="130" height="30" as="geometry" />
        </mxCell>
        <mxCell id="bC8LytwzRF4bNWjZ34YL-25" value="&lt;font style=&quot;font-size: 18px;&quot;&gt;&lt;b style=&quot;font-size: 18px;&quot;&gt;Port&lt;/b&gt;&lt;/font&gt;" style="text;html=1;strokeColor=none;fillColor=none;align=center;verticalAlign=middle;whiteSpace=wrap;rounded=0;labelBackgroundColor=none;fontFamily=Helvetica;fontSize=18;" parent="bC8LytwzRF4bNWjZ34YL-14" vertex="1">
          <mxGeometry x="210" y="-13" width="60" height="30" as="geometry" />
        </mxCell>
        <mxCell id="bC8LytwzRF4bNWjZ34YL-23" value="" style="endArrow=none;html=1;rounded=0;strokeWidth=2;labelBackgroundColor=none;fontColor=default;fontFamily=Helvetica;fontSize=18;" parent="1" edge="1">
          <mxGeometry width="50" height="50" relative="1" as="geometry">
            <mxPoint x="290" y="187" as="sourcePoint" />
            <mxPoint x="330" y="187" as="targetPoint" />
          </mxGeometry>
        </mxCell>
        <mxCell id="bC8LytwzRF4bNWjZ34YL-24" value="" style="endArrow=none;html=1;rounded=0;strokeWidth=2;labelBackgroundColor=none;fontColor=default;fontFamily=Helvetica;fontSize=18;" parent="1" edge="1">
          <mxGeometry width="50" height="50" relative="1" as="geometry">
            <mxPoint x="290" y="248" as="sourcePoint" />
            <mxPoint x="330" y="248" as="targetPoint" />
          </mxGeometry>
        </mxCell>
        <mxCell id="bC8LytwzRF4bNWjZ34YL-26" value="&lt;font style=&quot;font-size: 18px;&quot;&gt;&lt;b style=&quot;font-size: 18px;&quot;&gt;Signal/&lt;br&gt;Channel&lt;/b&gt;&lt;/font&gt;" style="text;html=1;strokeColor=none;fillColor=none;align=center;verticalAlign=middle;whiteSpace=wrap;rounded=0;labelBackgroundColor=none;fontFamily=Helvetica;fontSize=18;" parent="1" vertex="1">
          <mxGeometry x="380" y="233" width="60" height="30" as="geometry" />
        </mxCell>
        <mxCell id="bC8LytwzRF4bNWjZ34YL-4" value="" style="rounded=0;whiteSpace=wrap;html=1;labelBackgroundColor=none;fontFamily=Helvetica;fontSize=18;strokeWidth=2;fillColor=#76608a;fontColor=#ffffff;strokeColor=#432D57;" parent="1" vertex="1">
          <mxGeometry x="49" y="238" width="20" height="20" as="geometry" />
        </mxCell>
        <mxCell id="6yzn0O8OQgqGRN4hSSv7-4" value="" style="ellipse;whiteSpace=wrap;html=1;aspect=fixed;strokeWidth=2;fontFamily=Helvetica;" vertex="1" parent="1">
          <mxGeometry x="330" y="171" width="30" height="30" as="geometry" />
        </mxCell>
        <mxCell id="6yzn0O8OQgqGRN4hSSv7-5" value="" style="ellipse;whiteSpace=wrap;html=1;aspect=fixed;strokeWidth=2;fontFamily=Helvetica;" vertex="1" parent="1">
          <mxGeometry x="330" y="233" width="30" height="30" as="geometry" />
        </mxCell>
        <mxCell id="6yzn0O8OQgqGRN4hSSv7-6" value="" style="endArrow=none;html=1;rounded=0;strokeWidth=2;labelBackgroundColor=none;fontColor=default;fontFamily=Helvetica;fontSize=18;" edge="1" parent="1">
          <mxGeometry width="50" height="50" relative="1" as="geometry">
            <mxPoint x="486" y="187.33" as="sourcePoint" />
            <mxPoint x="526" y="187.33" as="targetPoint" />
          </mxGeometry>
        </mxCell>
        <mxCell id="6yzn0O8OQgqGRN4hSSv7-7" value="" style="endArrow=none;html=1;rounded=0;strokeWidth=2;labelBackgroundColor=none;fontColor=default;fontFamily=Helvetica;fontSize=18;" edge="1" parent="1">
          <mxGeometry width="50" height="50" relative="1" as="geometry">
            <mxPoint x="486" y="248.33" as="sourcePoint" />
            <mxPoint x="526" y="248.33" as="targetPoint" />
          </mxGeometry>
        </mxCell>
        <mxCell id="6yzn0O8OQgqGRN4hSSv7-8" value="" style="ellipse;whiteSpace=wrap;html=1;aspect=fixed;strokeWidth=2;fontFamily=Helvetica;" vertex="1" parent="1">
          <mxGeometry x="460" y="172" width="30" height="30" as="geometry" />
        </mxCell>
        <mxCell id="6yzn0O8OQgqGRN4hSSv7-9" value="" style="ellipse;whiteSpace=wrap;html=1;aspect=fixed;strokeWidth=2;fontFamily=Helvetica;" vertex="1" parent="1">
          <mxGeometry x="460" y="234" width="30" height="30" as="geometry" />
        </mxCell>
        <mxCell id="6yzn0O8OQgqGRN4hSSv7-10" value="" style="shape=hexagon;perimeter=hexagonPerimeter2;whiteSpace=wrap;html=1;fixedSize=1;strokeWidth=2;fontFamily=Helvetica;" vertex="1" parent="1">
          <mxGeometry x="360" y="157" width="100" height="58" as="geometry" />
        </mxCell>
        <mxCell id="6yzn0O8OQgqGRN4hSSv7-12" value="&lt;font style=&quot;font-size: 18px;&quot;&gt;&lt;b style=&quot;font-size: 18px;&quot;&gt;Signal/&lt;br&gt;Channel&lt;/b&gt;&lt;/font&gt;" style="text;html=1;strokeColor=none;fillColor=none;align=center;verticalAlign=middle;whiteSpace=wrap;rounded=0;labelBackgroundColor=none;fontFamily=Helvetica;fontSize=18;" vertex="1" parent="1">
          <mxGeometry x="380" y="171" width="60" height="30" as="geometry" />
        </mxCell>
      </root>
    </mxGraphModel>
  </diagram>
</mxfile>
